# xmcd
#
# Track frame offsets: 
#        150
#        22338
#        43331
#        56797
#        75920
#        92989
#        111588
#        131203
#        149477
#        184119
#        209387
#        233604
#
# Disc length: 3352 seconds
#
# Revision: 0
# Processed by: cddbd v1.5.2PL0 Copyright (c) Steve Scherf et al.
# Submitted via: ExactAudioCopy v1.3
#
DISCID=b70d160c
DTITLE=Peter Karp - The American Blues
DYEAR=2018
DGENRE=Blues Rock
TTITLE0=Treat Me Right
TTITLE1=Alabama Town
TTITLE2=Train O'Mine
TTITLE3=The Turning Point
TTITLE4=The Nieztsche Lounge
TTITLE5=Nobody Really Knows
TTITLE6=Rolling On A Log
TTITLE7=That's How I Like It
TTITLE8=Her And My Blues
TTITLE9=I'm Not Giving Up
TTITLE10=The Arson's Match
TTITLE11=Y'all Be Lookin'
EXTD=
EXTT0=
EXTT1=
EXTT2=
EXTT3=
EXTT4=
EXTT5=
EXTT6=
EXTT7=
EXTT8=
EXTT9=
EXTT10=
EXTT11=
PLAYORDER=
